# xmcd
#
# Track frame offsets:
#	150
#	13447
#	28604
#	42932
#	56566
#	72661
#	86362
#	101100
#	117600
#	132582
#	145606
#	157855
#	176790
#
# Disc length: 2613 seconds
# Revision: 0
# Processed by: cddbd v1.5.2PL0 Copyright (c) Steve Scherf et al.
# Submitted via: dBpowerAMP V12.0
#
DISCID=bc0a330d
DTITLE=Various Artist - Lucy Angel
DYEAR=2000
DGENRE=Country
TTITLE0=Lucy Angel - Make Me This Mad
TTITLE1=Lucy Angel - Crazy Too
TTITLE2=Lucy Angel - Slammin' Door
TTITLE3=Lucy Angel - Wheels
TTITLE4=Lucy Angel - Chain Smokin'
TTITLE5=Lucy Angel - Stripes
TTITLE6=Lucy Angel - You Remain
TTITLE7=Lucy Angel - Serious
TTITLE8=Lucy Angel - Lightning In A Bottle
TTITLE9=Lucy Angel and Colt Ford - Ask Somebody
TTITLE10=Lucy Angel - Imagine
TTITLE11=Lucy Angel - Run With Me
TTITLE12=Lucy Angel - I'd Be Lyin'
EXTD=
EXTT0=
EXTT1=
EXTT2=
EXTT3=
EXTT4=
EXTT5=
EXTT6=
EXTT7=
EXTT8=
EXTT9=
EXTT10=
EXTT11=
EXTT12=
PLAYORDER=
